<?xml version="1.0" encoding="iso-8859-1"?>
<!-- Uploaded to: SVG Repo, www.svgrepo.com, Generator: SVG Repo Mixer Tools -->
<svg height="800px" width="800px" version="1.1" id="Layer_1" xmlns="http://www.w3.org/2000/svg"
     viewBox="0 0 512 512" xml:space="preserve">
<g>
	<path style="fill:#FF3C63;" d="M26.686,262.033H9.529v39.761c0,39.268,31.833,71.101,71.101,71.101l0,0v-56.918
		C80.628,286.184,56.478,262.033,26.686,262.033z"/>
    <path style="fill:#FF3C63;" d="M485.314,262.033h17.158v39.761c0,39.268-31.833,71.101-71.101,71.101l0,0v-56.918
		C431.371,286.184,455.522,262.033,485.314,262.033z"/>
</g>
    <path style="fill:#FF738D;" d="M427.787,177.292C407.436,101.473,338.243,45.648,256,45.648l0,0
	c-82.243,0-151.436,55.823-171.787,131.644l-0.146,0.532c-3.869,14.58-5.933,29.893-5.933,45.69v149.379
	c0,69.059,55.983,125.042,125.042,125.042h105.647c69.059,0,125.042-55.983,125.042-125.042V223.514
	C433.866,207.525,431.743,192.033,427.787,177.292z"/>
    <path style="fill:#20272E;"
          d="M311.901,383.403c0,30.874-25.028,55.901-55.901,55.901s-55.901-25.028-55.901-55.901H311.901z"/>
    <g>
	<path style="fill:#FFFFFF;" d="M223.566,383.403v14.843c0,5.262,4.265,9.529,9.529,9.529c5.264,0,9.529-4.266,9.529-9.529v-14.843
		H223.566z"/>
        <path style="fill:#FFFFFF;" d="M269.376,383.403v14.843c0,5.262,4.265,9.529,9.529,9.529s9.529-4.266,9.529-9.529v-14.843H269.376z
		"/>
</g>
    <g>
	<path style="fill:#FF3C63;" d="M256,364.691L256,364.691c-8.008,0-15.327-4.386-19.105-11.443l-12.202-22.792
		c-2.484-4.64-0.736-10.414,3.903-12.898c4.641-2.485,10.414-0.736,12.898,3.904l12.202,22.792c0.61,1.14,1.589,1.38,2.303,1.38
		c0.715,0,1.695-0.239,2.305-1.38l12.2-22.791c2.484-4.638,8.256-6.388,12.897-3.904c4.64,2.484,6.388,8.258,3.904,12.898
		l-12.2,22.792C271.327,360.307,264.005,364.691,256,364.691z"/>
        <polygon style="fill:#FF3C63;" points="139.063,143.958 176.034,14.063 213.003,143.958 	"/>
        <polygon style="fill:#FF3C63;" points="372.935,143.958 335.966,14.063 298.995,143.958 	"/>
</g>
    <g>
	<path style="opacity:0.3;fill:#20272E;enable-background:new    ;" d="M485.314,262.033c-24.129,0-44.554,15.845-51.448,37.696
		v-76.216c0-15.989-2.122-31.481-6.079-46.221c-11.476-42.759-38.489-79.155-74.614-102.768l-17.209-60.46l-12.734,44.742
		C302.489,50.328,279.793,45.648,256,45.648l0,0v452.288h52.824c69.059,0,125.042-55.983,125.042-125.042v-0.064
		c38.11-1.317,68.605-32.607,68.605-71.037v-39.759H485.314L485.314,262.033z"/>
        <circle style="fill:#20272E;" cx="171.145" cy="332.914" r="15.877"/>
        <circle style="fill:#20272E;" cx="340.855" cy="332.914" r="15.877"/>
        <path style="fill:#20272E;" d="M311.901,379.308H200.099c-5.262,0-9.529,4.265-9.529,9.529c0,36.078,29.352,65.429,65.429,65.429
		s65.429-29.352,65.429-65.429C321.429,383.573,317.163,379.308,311.901,379.308z M301.388,398.365
		c-4.406,21.015-23.083,36.844-45.388,36.844s-40.983-15.829-45.389-36.844H301.388z"/>
        <path style="fill:#20272E;" d="M197.111,311.178c4.503,0,8.508-3.205,9.358-7.793c0.959-5.175-2.458-10.146-7.632-11.105
		l-51.03-9.46c-5.171-0.962-10.146,2.458-11.106,7.632c-0.96,5.173,2.457,10.146,7.632,11.105l51.03,9.46
		C195.951,311.126,196.534,311.178,197.111,311.178z"/>
        <path style="fill:#20272E;" d="M364.192,282.82l-51.03,9.46c-5.175,0.959-8.591,5.931-7.632,11.105
		c0.85,4.586,4.854,7.793,9.358,7.793c0.576,0,1.161-0.052,1.747-0.161l51.03-9.46c5.175-0.959,8.591-5.932,7.632-11.105
		C374.338,285.275,369.363,281.859,364.192,282.82z"/>
        <path style="fill:#20272E;" d="M502.471,252.505h-17.158c-15.891,0-30.631,5.816-41.919,15.737v-44.728
		c0-16.477-2.155-32.859-6.404-48.692c-11.63-43.329-38.427-80.942-75.608-106.269l-16.251-57.098
		c-1.165-4.096-4.907-6.92-9.165-6.92s-7.999,2.826-9.165,6.92l-9.903,34.796C297.363,39.532,276.928,36.12,256,36.12
		s-41.363,3.412-60.898,10.132l-9.903-34.796c-1.165-4.096-4.907-6.92-9.165-6.92c-4.259,0-7.999,2.826-9.165,6.92l-16.251,57.095
		c-37.185,25.327-63.975,62.928-75.596,106.224l-0.165,0.606c-4.149,15.634-6.252,31.829-6.252,48.133v44.728
		c-11.288-9.921-26.028-15.737-41.919-15.737H9.529c-5.264,0-9.529,4.265-9.529,9.529v39.761c0,21.043,8.06,40.952,22.694,56.065
		c12.503,12.909,28.659,21.125,46.196,23.676c4.472,70.19,62.987,125.929,134.286,125.929h105.647
		c71.299,0,129.814-55.739,134.285-125.929c17.536-2.552,33.693-10.767,46.196-23.676C503.939,342.748,512,322.837,512,301.794
		v-39.761C512,256.771,507.734,252.505,502.471,252.505z M68.605,362.187c-28.46-5.557-49.548-30.42-49.548-60.393v-30.232h7.629
		c19.013,0,35.685,11.881,41.919,29.707V362.187z M424.337,299.73v73.102v0.062c0,63.695-51.819,115.514-115.514,115.514H203.176
		c-63.695,0-115.514-51.819-115.514-115.514v-0.062v-73.1v-76.217c0-14.655,1.888-29.204,5.594-43.172l0.159-0.579
		c8.267-30.799,25.065-58.372,48.268-79.819l-11.785,41.406c-1.441,5.06,1.495,10.333,6.557,11.773
		c0.872,0.248,1.749,0.366,2.613,0.366c4.151,0,7.967-2.733,9.16-6.923l27.806-97.694l3.581,12.584
		c0.004,0.014,0.008,0.028,0.013,0.042l24.211,85.068c1.441,5.062,6.711,7.996,11.773,6.557c5.062-1.441,7.996-6.712,6.557-11.773
		l-21.843-76.748c17.834-6.256,36.522-9.426,55.676-9.426s37.841,3.17,55.675,9.426l-21.843,76.748
		c-1.441,5.06,1.495,10.333,6.557,11.773c0.872,0.248,1.749,0.366,2.613,0.366c4.151,0,7.967-2.733,9.16-6.923l24.216-85.082
		c0-0.003,0.001-0.005,0.003-0.008l3.588-12.604l27.806,97.694c1.441,5.062,6.712,7.996,11.773,6.557
		c5.062-1.441,7.996-6.712,6.557-11.773l-11.785-41.406c23.203,21.448,40.003,49.026,48.268,79.819
		c3.818,14.222,5.753,28.943,5.753,43.753v76.214H424.337z M492.943,301.794c0,29.973-21.089,54.836-49.548,60.393v-60.919
		c6.234-17.826,22.907-29.706,41.919-29.706h7.629V301.794z"/>
</g>
</svg>