<?xml version="1.0" encoding="iso-8859-1"?>
<!-- Uploaded to: SVG Repo, www.svgrepo.com, Generator: SVG Repo Mixer Tools -->
<svg height="800px" width="800px" version="1.1" id="Layer_1" xmlns="http://www.w3.org/2000/svg"
     viewBox="0 0 512 512" xml:space="preserve">
<g>
	<path style="fill:#FF3C63;" d="M17.821,262.267H0v41.298c0,40.786,33.064,73.849,73.849,73.849l0,0v-59.119
		C73.849,287.352,48.764,262.267,17.821,262.267z"/>
    <path style="fill:#FF3C63;" d="M494.179,262.267H512v41.298c0,40.786-33.064,73.849-73.849,73.849l0,0v-59.119
		C438.151,287.352,463.236,262.267,494.179,262.267z"/>
</g>
    <path style="fill:#FF738D;" d="M434.428,174.25C413.291,95.499,341.423,37.516,256,37.516l0,0
	c-85.422,0-157.291,57.981-178.428,136.733l-0.152,0.553c-4.018,15.144-6.162,31.049-6.162,47.456v155.154
	c0,71.729,58.148,129.876,129.876,129.876h109.732c71.729,0,129.876-58.148,129.876-129.876V222.258
	C440.742,205.651,438.539,189.56,434.428,174.25z"/>
    <g>
	<circle style="fill:#1E252B;" cx="167.865" cy="330.24" r="16.491"/>
        <circle style="fill:#1E252B;" cx="344.135" cy="330.24" r="16.491"/>
</g>
    <path style="fill:#20272E;"
          d="M314.062,388.33c0,32.067-25.996,58.062-58.062,58.062s-58.062-25.996-58.062-58.062H314.062z"/>
    <g>
	<path style="fill:#FFFFFF;"
          d="M222.312,388.33v15.417c0,5.466,4.43,9.897,9.897,9.897s9.897-4.431,9.897-9.897V388.33H222.312z"/>
        <path style="fill:#FFFFFF;" d="M269.894,388.33v15.417c0,5.466,4.43,9.897,9.897,9.897c5.467,0,9.897-4.431,9.897-9.897V388.33
		H269.894z"/>
</g>
    <path style="fill:#FF3C63;" d="M256,368.893L256,368.893c-8.317,0-15.919-4.555-19.844-11.885l-12.673-23.673
	c-2.58-4.819-0.764-10.817,4.054-13.396c4.82-2.581,10.817-0.764,13.396,4.055l12.673,23.673c0.633,1.184,1.651,1.433,2.392,1.433
	c0.743,0,1.76-0.248,2.394-1.433l12.672-23.672c2.58-4.818,8.575-6.635,13.395-4.055c4.819,2.58,6.635,8.577,4.055,13.396
	l-12.672,23.673C271.919,364.339,264.315,368.893,256,368.893z"/>
    <g>
	<path style="fill:#20272E;" d="M194.836,307.668c-0.599,0-1.206-0.055-1.816-0.168l-53.003-9.826
		c-5.373-0.996-8.923-6.16-7.927-11.536c0.998-5.375,6.168-8.916,11.535-7.927l53.003,9.826c5.373,0.996,8.923,6.161,7.927,11.536
		C203.672,304.338,199.512,307.668,194.836,307.668z"/>
        <path style="fill:#20272E;" d="M317.166,307.668c-4.677,0-8.836-3.329-9.719-8.094c-0.996-5.375,2.553-10.538,7.927-11.536
		l53.003-9.826c5.372-0.994,10.538,2.552,11.535,7.927c0.996,5.375-2.553,10.54-7.927,11.536l-53.003,9.826
		C318.372,307.614,317.765,307.668,317.166,307.668z"/>
</g>
    <g>
	<polygon style="fill:#FF3C63;" points="134.543,139.627 172.943,4.71 211.341,139.627 	"/>
        <polygon style="fill:#FF3C63;" points="377.457,139.627 339.057,4.71 300.659,139.627 	"/>
</g>
    <path style="opacity:0.3;fill:#20272E;enable-background:new    ;" d="M494.179,262.267c-25.062,0-46.277,16.458-53.437,39.154
	v-79.162c0-16.607-2.204-32.698-6.314-48.008c-11.92-44.412-39.977-82.216-77.498-106.741L339.057,4.711l-13.226,46.472
	C304.288,42.379,280.713,37.517,256,37.517l0,0V507.29h54.866c71.729,0,129.876-58.148,129.876-129.876v-0.066
	C480.326,375.98,512,343.481,512,303.565v-41.296h-17.821V262.267z"/>
</svg>