<?xml version="1.0" encoding="iso-8859-1"?>
<!-- Uploaded to: SVG Repo, www.svgrepo.com, Generator: SVG Repo Mixer Tools -->
<svg height="800px" width="800px" version="1.1" id="Layer_1" xmlns="http://www.w3.org/2000/svg"
     viewBox="0 0 511.987 511.987" xml:space="preserve">
<path style="fill:#434A54;" d="M406.958,389.692l-8.797-19.421c20.656-9.359,35.952-23.952,45.483-43.437
	c7.266-14.859,8.297-27.124,8.328-27.265l21.219,1.577c-0.031,0.609-1.172,15.75-9.938,34.094
	C455.238,352.099,438.894,375.256,406.958,389.692z"/>
    <path style="fill:#DA4453;" d="M454.472,386.333l-1.828-0.531c-26.452-7.093-35.39-13.921-47.171-18.405
	c-41.828-15.922-52.688-27.39-55.483-32.812c-0.078-0.203-0.156-0.406-0.234-0.609l-0.359-48.562l-99.138-1.109l-99.092,1.109
	l-0.344,48.562c-0.078,0.203-0.219,0.406-0.312,0.609c-2.734,5.422-13.656,16.89-55.42,32.812
	c-11.781,4.484-20.765,11.312-47.218,18.405l-1.843,0.531c-24.062,7.969-40.281,30.329-40.281,55.547v70.107h244.51h244.557V441.88
	C494.815,416.662,478.551,394.302,454.472,386.333z"/>
    <path style="fill:#ED5564;" d="M387.833,191.479c0,89.373-85.232,171.605-137.575,171.605c-52.327,0-137.528-82.232-137.528-171.605
	c0-89.381,61.592-148.34,137.528-148.34C326.257,43.139,387.833,102.098,387.833,191.479z"/>
    <path style="fill:#434A54;" d="M291.335,325.054c-1.953-3.156-5.391-5.078-9.062-5.078h-63.998c-3.718,0-7.14,1.922-9.093,5.078
	c-1.938,3.125-2.094,7.078-0.469,10.359l32.03,63.998c1.781,3.625,5.484,5.906,9.516,5.906c4.078,0,7.734-2.281,9.546-5.906
	l31.983-63.998C293.475,332.132,293.272,328.179,291.335,325.054z"/>
    <path style="fill:#ED5564;" d="M505.846,300.616l-17.624-84.302c-0.891-4.289-4.312-7.586-8.577-8.328
	c-4.312-0.758-8.656,1.195-10.953,4.93l-45.265,73.92c-1.859,3.031-2.125,6.766-0.672,9.984c1.453,3.202,4.405,5.515,7.89,6.108
	l63.062,10.938c0.656,0.109,1.25,0.172,1.844,0.172c0.016,0,0.062,0,0.094,0c5.844-0.078,10.593-4.812,10.593-10.672
	C506.236,302.413,506.111,301.491,505.846,300.616z"/>
    <path style="fill:#FFCE54;" d="M190.791,76.145c-47.5-8.296-77.483-69.483-77.749-70.101c-2.016-4.125-6.406-6.507-10.921-5.968
	c-4.531,0.547-8.25,3.938-9.188,8.406c-0.172,0.953-4.75,23.508-1.5,50.351c4.562,36.89,21.781,64.1,49.812,78.631
	c7.171,3.711,14.562,5.594,21.968,5.594l0,0c11.828,0,23.375-4.914,32.391-13.875c7.984-7.852,13.171-18.164,14.015-27.593
	C210.79,88.34,203.353,78.356,190.791,76.145z"/>
    <path style="fill:#F6BB42;" d="M170.338,69.068c-6.469-3.383-12.5-7.602-18.015-12.258c-3.812,9.508-18.156,40.507-45.546,48.468
	c4,6.539,8.672,12.414,14.031,17.577C148.744,110.879,164.088,83.106,170.338,69.068z"/>
    <path style="fill:#FFCE54;" d="M309.772,76.145c47.451-8.296,77.498-69.483,77.748-70.101c1.984-4.125,6.359-6.507,10.875-5.968
	c4.594,0.547,8.234,3.938,9.172,8.406c0.234,0.953,4.812,23.508,1.516,50.351c-4.516,36.89-21.719,64.1-49.828,78.631
	c-7.125,3.711-14.499,5.594-21.952,5.594l0,0c-11.827,0-23.327-4.914-32.39-13.875c-7.938-7.852-13.172-18.164-13.969-27.593
	C289.772,88.34,297.163,78.356,309.772,76.145z"/>
    <path style="fill:#F6BB42;" d="M330.225,69.068c6.468-3.383,12.452-7.602,17.999-12.258c3.843,9.508,18.171,40.507,45.562,48.468
	c-3.984,6.539-8.719,12.414-14.094,17.577C351.817,110.879,336.474,83.106,330.225,69.068z"/>
</svg>