<?xml version="1.0" encoding="iso-8859-1"?>
<!-- Uploaded to: SVG Repo, www.svgrepo.com, Generator: SVG Repo Mixer Tools -->
<svg height="800px" width="800px" version="1.1" id="Layer_1" xmlns="http://www.w3.org/2000/svg"
     viewBox="0 0 512 512" xml:space="preserve">
<path style="fill:#E54728;" d="M476.101,285.422c0-25.654-17.094-47.344-40.51-54.26h-5.689v108.588h5.689v-0.063
	C459.01,332.758,476.101,311.083,476.101,285.422z"/>
    <path style="fill:#F95428;" d="M435.591,285.435v45.659c0,2.898-0.067,5.783-0.202,8.655c-2.75,58.008-33.028,108.803-78.04,139.634
	c-0.391,0.283-0.795,0.539-1.186,0.809c-28.606,19.251-63.063,30.494-100.162,30.494s-71.556-11.243-100.176-30.494
	c-0.377-0.27-0.782-0.526-1.173-0.809c-45.026-30.831-75.304-81.626-78.054-139.634c-0.135-2.871-0.202-5.756-0.202-8.655v-45.659
	v-54.274v-50.243c0-8.439,0.58-16.743,1.712-24.872c9.666,7.428,39.35-71.448,28.957-75.546C139.351,32.725,194.002,1.314,256,1.314
	c49.596,0,94.5,20.1,126.989,52.602c8.129,8.129,15.476,17.026,21.933,26.584v0.013c-10.394,4.098,19.305,82.961,28.957,75.533
	c1.132,8.129,1.712,16.433,1.712,24.872v50.243V285.435z"/>
    <path style="fill:#E54728;" d="M211.078,480.192c-0.377-0.27-0.782-0.539-1.173-0.822c-45.012-30.817-75.304-81.626-78.054-139.62
	c-0.135-2.871-0.202-5.756-0.202-8.655v-45.673v-54.26v-22.095v-28.148c0-49.987,20.423-95.215,53.384-127.771
	c26.232-25.915,60.411-43.811,98.554-49.709C274.586,2.042,265.379,1.314,256,1.314c-49.205,0-93.786,19.79-126.221,51.834
	c-32.961,32.556-53.384,77.784-53.384,127.771v28.148v22.095c-23.416,6.916-40.51,28.606-40.51,54.26
	c0,25.735,17.188,47.466,40.712,54.328c2.75,57.994,33.041,108.803,78.054,139.62c0.391,0.283,0.795,0.553,1.173,0.822
	c28.62,19.251,63.077,30.494,100.176,30.494c9.396,0,18.621-0.728,27.628-2.118C257.077,504.471,232.449,494.567,211.078,480.192z"
    />
    <g>
	<path style="fill:#FCD69A;" d="M175.466,135.017v0.526c0,8.277-2.157,15.853-5.864,22.338
		c-11.162,19.561-36.344,29.226-58.79,18.334c-12.187-5.918-23.039-12.739-32.704-20.167C2.575,97.972,0,2.487,0,2.487
		s0,0.013,0.027,0.04c1.132,1.523,37.827,50.742,107.037,77.973c10.394,4.098,21.529,7.698,33.392,10.569
		C160.893,96.003,175.466,114,175.466,135.017z"/>
        <path style="fill:#FCD69A;" d="M512,2.487c0,0-2.588,95.484-78.121,153.56c-9.652,7.428-20.504,14.249-32.704,20.167
		c-29.887,14.505-64.654-7.455-64.654-40.672v-0.526c0-21.017,14.573-39.013,35.01-43.947c11.863-2.871,22.998-6.457,33.392-10.555
		v-0.013C475.251,52.838,512,2.487,512,2.487z"/>
</g>
    <g>
	<path style="fill:#D3A562;" d="M169.602,157.88c-11.162,19.561-36.344,29.226-58.79,18.334
		c-12.187-5.918-23.039-12.739-32.704-20.167C2.575,97.972,0,2.487,0,2.487s0,0.013,0.027,0.04
		C1.052,5.022,49.461,120.471,169.602,157.88z"/>
        <path style="fill:#D3A562;" d="M342.398,157.88c11.162,19.561,36.344,29.226,58.79,18.334
		c12.187-5.918,23.039-12.739,32.704-20.167C509.425,97.972,512,2.487,512,2.487s0,0.013-0.027,0.04
		C510.949,5.022,462.539,120.471,342.398,157.88z"/>
</g>
    <path style="fill:#4D4D4D;" d="M322.042,396.962c0,11.283-2.831,21.906-7.819,31.194c-7.347,13.697-19.372,24.481-33.958,30.237
	c-2.4,0.971-4.88,1.779-7.414,2.454c-2.373,0.62-4.799,1.119-7.266,1.469c-3.141,0.458-6.336,0.701-9.598,0.701
	c-3.249,0-6.444-0.229-9.571-0.701c-2.467-0.351-4.894-0.849-7.266-1.469c-2.534-0.661-5.015-1.483-7.414-2.44
	c-14.586-5.756-26.638-16.554-33.985-30.251c-4.988-9.288-7.819-19.911-7.819-31.195c0-21.286,10.057-25.708,25.694-25.681
	c2.346,0,4.826,0.108,7.401,0.27c2.386,0.148,4.853,0.337,7.414,0.553c5.689,0.472,11.782,1.025,18.159,1.294
	c2.427,0.094,4.894,0.162,7.387,0.162H256c2.507,0,4.974-0.067,7.401-0.162c6.363-0.27,12.456-0.822,18.145-1.294
	c2.561-0.216,5.042-0.404,7.414-0.553c2.588-0.162,5.055-0.27,7.401-0.27C311.986,371.254,322.042,375.676,322.042,396.962z"/>
    <path style="fill:#C42610;" d="M314.224,428.156c-7.347,13.696-19.372,24.481-33.958,30.237c-2.4,0.971-4.88,1.779-7.414,2.454
	c-2.373,0.62-4.799,1.119-7.266,1.469c-3.141,0.458-6.336,0.701-9.598,0.701c-3.249,0-6.444-0.229-9.571-0.701
	c-2.467-0.35-4.894-0.849-7.266-1.469c-2.534-0.661-5.015-1.483-7.414-2.44c-14.586-5.756-26.638-16.554-33.985-30.251
	c7.347-13.696,19.372-24.481,33.958-30.237c2.4-0.971,4.88-1.779,7.414-2.453c2.373-0.62,4.799-1.119,7.266-1.469
	c3.141-0.458,6.336-0.701,9.598-0.701c3.249,0,6.444,0.229,9.571,0.701c2.467,0.351,4.894,0.849,7.266,1.469
	c2.534,0.661,5.015,1.483,7.414,2.44C294.825,403.662,306.876,414.46,314.224,428.156z"/>
    <g>
	<path style="fill:#F2F2F2;" d="M230.44,372.103v32.462c0,4.098-3.316,7.414-7.414,7.414s-7.414-3.316-7.414-7.414v-33.014
		c0-0.094,0-0.189,0.013-0.27c2.346,0,4.826,0.108,7.401,0.27C225.412,371.699,227.879,371.888,230.44,372.103z"/>
        <path style="fill:#F2F2F2;" d="M263.414,373.559v31.006c0,4.098-3.316,7.414-7.414,7.414s-7.414-3.316-7.414-7.414v-31.006
		c0-0.054,0-0.108,0.013-0.162c2.427,0.094,4.894,0.162,7.387,0.162H256c2.507,0,4.974-0.067,7.401-0.162
		C263.414,373.451,263.414,373.505,263.414,373.559z"/>
        <path style="fill:#F2F2F2;" d="M296.375,371.47v33.095c0,4.098-3.316,7.414-7.414,7.414s-7.414-3.316-7.414-7.414v-32.462
		c2.561-0.216,5.042-0.404,7.414-0.553c2.588-0.162,5.055-0.27,7.401-0.27C296.375,371.348,296.375,371.402,296.375,371.47z"/>
        <path style="fill:#F2F2F2;" d="M246.563,432.875v27.973c0,0.499-0.054,0.998-0.148,1.469c-2.467-0.35-4.894-0.849-7.266-1.469
		c-2.534-0.661-5.015-1.483-7.414-2.44v-25.533c0-4.098,3.316-7.414,7.414-7.414S246.563,428.776,246.563,432.875z"/>
        <path style="fill:#F2F2F2;" d="M280.265,432.875v25.519c-2.4,0.971-4.88,1.779-7.414,2.454c-2.373,0.62-4.799,1.119-7.266,1.469
		c-0.094-0.472-0.148-0.971-0.148-1.469v-27.973c0-4.098,3.316-7.414,7.414-7.414S280.265,428.776,280.265,432.875z"/>
</g>
    <path style="fill:#D3321C;" d="M279.241,264.365v64.236c0,10.313-8.345,18.671-18.657,18.671h-9.18
	c-10.313,0-18.671-8.358-18.671-18.671v-64.236"/>
    <g>
	<path style="fill:#E54728;" d="M308.278,302.906c0,0-1.793,38.299,61.567,66.609c0,0-37.454-26.881-26.669-66.424"/>
        <path style="fill:#E54728;"
              d="M203.708,302.906c0,0,1.793,38.299-61.567,66.609c0,0,37.454-26.881,26.669-66.424"/>
</g>
    <g>
	<path style="fill:#666666;" d="M217.909,280.597c-7.958,0-15.915-3.025-21.976-9.077l-34.451-34.464
		c-3.157-3.149-7.862-4.055-11.968-2.3l-5.798,2.497c-5.125,2.21-11.076-0.159-13.284-5.289c-2.208-5.129,0.159-11.076,5.289-13.284
		l5.824-2.507c11.763-5.028,25.192-2.443,34.232,6.577l34.453,34.466c4.234,4.228,11.127,4.229,15.359-0.001
		c3.949-3.947,10.349-3.947,14.299,0c3.949,3.949,3.947,10.351,0,14.299C233.825,277.569,225.868,280.597,217.909,280.597z"/>
        <path style="fill:#666666;" d="M294.075,280.597c-7.958,0-15.915-3.025-21.976-9.077c-3.953-3.946-3.958-10.347-0.012-14.298
		c3.944-3.953,10.347-3.958,14.298-0.012c4.241,4.236,11.134,4.237,15.365,0.005l34.457-34.457
		c9.035-9.035,22.462-11.622,34.207-6.593l5.843,2.516c5.128,2.208,7.497,8.156,5.289,13.284c-2.208,5.129-8.155,7.499-13.284,5.289
		l-5.824-2.507c-4.02-1.721-8.826-0.797-11.932,2.312l-34.457,34.457C309.993,277.569,302.034,280.597,294.075,280.597z"/>
</g>
    <g>
	<path style="fill:#F2F2F2;" d="M380.158,272.116c8.493,19.844-0.701,42.828-20.545,51.321
		c-19.844,8.506-42.828-0.688-51.335-20.531L380.158,272.116z"/>
        <path style="fill:#F2F2F2;" d="M131.829,272.116l71.88,30.79c-8.506,19.844-31.491,29.038-51.335,20.531
		C132.53,314.945,123.322,291.96,131.829,272.116z"/>
</g>
</svg>