<?xml version="1.0" encoding="iso-8859-1"?>
<!-- Uploaded to: SVG Repo, www.svgrepo.com, Generator: SVG Repo Mixer Tools -->
<svg height="800px" width="800px" version="1.1" id="Layer_1" xmlns="http://www.w3.org/2000/svg"
     viewBox="0 0 512.004 512.004" xml:space="preserve">
<g>
	<path style="fill:#894B9D;" d="M485.519,282.486c0,126.755-102.762,229.517-229.517,229.517S26.485,409.242,26.485,282.486
		S129.246,52.969,256.002,52.969S485.519,155.731,485.519,282.486"/>
    <g>
		<path style="fill:#5C2E6D;" d="M438.381,143.201C455.171,69.111,406.328,0,406.328,0c-6.55,33.483-19.942,62.093-33.889,84.718
			C398.021,99.814,420.416,119.711,438.381,143.201"/>
        <path style="fill:#5C2E6D;" d="M139.953,84.492c-13.903-22.59-27.233-51.121-33.757-84.489c0,0-48.622,68.793-32.168,142.689
			C92.01,119.308,114.397,99.508,139.953,84.492"/>
	</g>
    <g>
		<path style="fill:#FFFFFF;" d="M388.416,194.21c0,19.5-15.81,35.31-35.31,35.31c-19.5,0-35.31-15.81-35.31-35.31
			s15.81-35.31,35.31-35.31C372.605,158.9,388.416,174.71,388.416,194.21"/>
        <path style="fill:#FFFFFF;" d="M123.588,194.21c0,19.5,15.81,35.31,35.31,35.31s35.31-15.81,35.31-35.31s-15.81-35.31-35.31-35.31
			S123.588,174.71,123.588,194.21"/>
	</g>
    <g>
		<path d="M344.278,194.21c0,4.873,3.955,8.828,8.828,8.828c4.873,0,8.828-3.955,8.828-8.828c0-4.873-3.955-8.828-8.828-8.828
			C348.232,185.383,344.278,189.338,344.278,194.21"/>
        <path d="M150.071,194.21c0,4.873,3.955,8.828,8.828,8.828c4.873,0,8.828-3.955,8.828-8.828c0-4.873-3.955-8.828-8.828-8.828
			C154.025,185.383,150.071,189.338,150.071,194.21"/>
	</g>
    <g>
		<path style="fill:#5C2E6D;" d="M256.002,423.728c-47.104,0-89.556-24.753-113.567-66.198c-2.445-4.22-1.006-9.622,3.213-12.059
			c4.237-2.463,9.613-1.006,12.058,3.213c20.824,35.928,57.565,57.388,98.295,57.388s77.471-21.46,98.295-57.388
			c2.445-4.22,7.83-5.676,12.058-3.213c4.22,2.436,5.659,7.839,3.213,12.059C345.558,398.975,303.106,423.728,256.002,423.728"/>
        <path style="fill:#5C2E6D;" d="M294.359,211.883c-2.26,0-4.52-0.865-6.241-2.586c-3.452-3.452-3.452-9.031,0-12.482l68.767-68.767
			c3.452-3.452,9.031-3.452,12.482,0s3.452,9.031,0,12.482L300.6,209.297C298.879,211.018,296.619,211.883,294.359,211.883"/>
        <path style="fill:#5C2E6D;" d="M217.635,211.874c-2.26,0-4.52-0.865-6.241-2.586l-68.758-68.758
			c-3.452-3.452-3.452-9.031,0-12.482s9.031-3.452,12.482,0l68.758,68.758c3.452,3.452,3.452,9.031,0,12.482
			C222.155,211.009,219.895,211.874,217.635,211.874"/>
	</g>
</g>
</svg>