<?xml version="1.0" encoding="iso-8859-1"?>
<!-- Uploaded to: SVG Repo, www.svgrepo.com, Generator: SVG Repo Mixer Tools -->
<svg version="1.1" id="Layer_1" xmlns="http://www.w3.org/2000/svg"
     viewBox="0 0 503.467 503.467" xml:space="preserve">
<g transform="translate(1 1)">
	<rect x="11.8" y="11.8" style="fill:#AAB1BA;" width="477.867" height="477.867"/>
    <path style="fill:#FF7474;" d="M310.467,267.8v85.333c0,4.267-3.413,8.533-8.533,8.533H114.2c-4.267,0-8.533-4.267-8.533-8.533
		V267.8c0-4.267,4.267-8.533,8.533-8.533h187.733C307.053,259.267,310.467,263.533,310.467,267.8z M71.533,353.133
		c0,4.267-4.267,8.533-8.533,8.533H3.267v-102.4H63c4.267,0,8.533,4.267,8.533,8.533V353.133z M71.533,80.067
		c0,4.267-4.267,8.533-8.533,8.533H20.333V37.4h51.2V80.067z M191,489.667c0,4.267-3.413,8.533-8.533,8.533H3.267V395.8h179.2
		c5.12,0,8.533,4.267,8.533,8.533V489.667z M191,216.6c0,4.267-3.413,8.533-8.533,8.533H20.333v-102.4h162.133
		c5.12,0,8.533,4.267,8.533,8.533V216.6z M429.933,131.267V216.6c0,4.267-3.413,8.533-8.533,8.533H233.667
		c-5.12,0-8.533-4.267-8.533-8.533v-85.333c0-4.267,3.413-8.533,8.533-8.533H421.4C426.52,122.733,429.933,127,429.933,131.267z
		 M310.467,3.267v76.8c0,4.267-3.413,8.533-8.533,8.533H114.2c-4.267,0-8.533-4.267-8.533-8.533v-76.8H310.467z M429.933,404.333
		v85.333c0,4.267-3.413,8.533-8.533,8.533H233.667c-5.12,0-8.533-4.267-8.533-8.533v-85.333c0-4.267,3.413-8.533,8.533-8.533H421.4
		C426.52,395.8,429.933,400.067,429.933,404.333z M498.2,498.2h-25.6c-5.12,0-8.533-4.267-8.533-8.533v-85.333
		c0-4.267,3.413-8.533,8.533-8.533h25.6V498.2z M498.2,225.133h-25.6c-5.12,0-8.533-4.267-8.533-8.533v-85.333
		c0-4.267,3.413-8.533,8.533-8.533h25.6V225.133z M464.067,88.6H353.133c-5.12,0-8.533-4.267-8.533-8.533V11.8
		c0-4.267,3.413-8.533,8.533-8.533h110.933V88.6z M498.2,361.667H353.133c-5.12,0-8.533-4.267-8.533-8.533V267.8
		c0-4.267,3.413-8.533,8.533-8.533H498.2V361.667z"/>
</g>
    <path style="fill:#51565F;" d="M473.6,503.467c-6.827,0-12.8-5.973-12.8-12.8v-85.333c0-6.827,5.973-12.8,12.8-12.8h25.6
	c2.56,0,4.267,1.707,4.267,4.267s-1.707,4.267-4.267,4.267l0,0h-25.6c-2.56,0-4.267,1.707-4.267,4.267v85.333
	c0,2.56,1.707,4.267,4.267,4.267s4.267,1.707,4.267,4.267C477.867,501.76,476.16,503.467,473.6,503.467z M422.4,503.467H234.667
	c-6.827,0-12.8-5.973-12.8-12.8v-85.333c0-6.827,5.973-12.8,12.8-12.8H422.4c6.827,0,12.8,5.973,12.8,12.8v85.333
	C435.2,497.493,429.227,503.467,422.4,503.467z M234.667,401.067c-2.56,0-4.267,1.707-4.267,4.267v85.333
	c0,2.56,1.707,4.267,4.267,4.267H422.4c2.56,0,4.267-1.707,4.267-4.267v-85.333c0-2.56-1.707-4.267-4.267-4.267H234.667z
	 M183.467,503.467H4.267C1.707,503.467,0,501.76,0,499.2c0-2.56,1.707-4.267,4.267-4.267h179.2c2.56,0,4.267-1.707,4.267-4.267
	v-85.333c0-2.56-1.707-4.267-4.267-4.267H4.267C1.707,401.067,0,399.36,0,396.8s1.707-4.267,4.267-4.267h179.2
	c6.827,0,12.8,5.973,12.8,12.8v85.333C196.267,497.493,190.293,503.467,183.467,503.467z M362.667,469.333h-8.533
	c-2.56,0-4.267-1.707-4.267-4.267c0-2.56,1.707-4.267,4.267-4.267h8.533c2.56,0,4.267,1.707,4.267,4.267
	C366.933,467.627,365.227,469.333,362.667,469.333z M132.267,469.333h-8.533c-2.56,0-4.267-1.707-4.267-4.267
	c0-2.56,1.707-4.267,4.267-4.267h8.533c2.56,0,4.267,1.707,4.267,4.267C136.533,467.627,134.827,469.333,132.267,469.333z
	 M21.333,452.267H4.267C1.707,452.267,0,450.56,0,448c0-2.56,1.707-4.267,4.267-4.267h17.067c2.56,0,4.267,1.707,4.267,4.267
	C25.6,450.56,23.893,452.267,21.333,452.267z M328.533,435.2h-51.2c-2.56,0-4.267-1.707-4.267-4.267c0-2.56,1.707-4.267,4.267-4.267
	h51.2c2.56,0,4.267,1.707,4.267,4.267C332.8,433.493,331.093,435.2,328.533,435.2z M98.133,435.2H89.6
	c-2.56,0-4.267-1.707-4.267-4.267c0-2.56,1.707-4.267,4.267-4.267h8.533c2.56,0,4.267,1.707,4.267,4.267
	C102.4,433.493,100.693,435.2,98.133,435.2z M499.2,366.933H354.133c-6.827,0-12.8-5.973-12.8-12.8V268.8
	c0-6.827,5.973-12.8,12.8-12.8H499.2c2.56,0,4.267,1.707,4.267,4.267c0,2.56-1.707,4.267-4.267,4.267l0,0H354.133
	c-2.56,0-4.267,1.707-4.267,4.267v85.333c0,2.56,1.707,4.267,4.267,4.267H499.2c2.56,0,4.267,1.707,4.267,4.267
	S501.76,366.933,499.2,366.933z M302.933,366.933H115.2c-6.827,0-12.8-5.973-12.8-12.8V268.8c0-6.827,5.973-12.8,12.8-12.8h187.733
	c6.827,0,12.8,5.973,12.8,12.8v85.333C315.733,360.96,309.76,366.933,302.933,366.933z M115.2,264.533
	c-2.56,0-4.267,1.707-4.267,4.267v85.333c0,2.56,1.707,4.267,4.267,4.267h187.733c2.56,0,4.267-1.707,4.267-4.267V268.8
	c0-2.56-1.707-4.267-4.267-4.267H115.2z M64,366.933H4.267c-2.56,0-4.267-1.707-4.267-4.267s1.707-4.267,4.267-4.267H64
	c2.56,0,4.267-1.707,4.267-4.267V268.8c0-2.56-1.707-4.267-4.267-4.267H4.267c-2.56,0-4.267-1.707-4.267-4.267
	C0,257.707,1.707,256,4.267,256H64c6.827,0,12.8,5.973,12.8,12.8v85.333C76.8,360.96,70.827,366.933,64,366.933z M396.8,332.8
	h-17.067c-2.56,0-4.267-1.707-4.267-4.267c0-2.56,1.707-4.267,4.267-4.267H396.8c2.56,0,4.267,1.707,4.267,4.267
	C401.067,331.093,399.36,332.8,396.8,332.8z M166.4,332.8h-8.533c-2.56,0-4.267-1.707-4.267-4.267c0-2.56,1.707-4.267,4.267-4.267
	h8.533c2.56,0,4.267,1.707,4.267,4.267C170.667,331.093,168.96,332.8,166.4,332.8z M277.333,315.733H243.2
	c-2.56,0-4.267-1.707-4.267-4.267c0-2.56,1.707-4.267,4.267-4.267h34.133c2.56,0,4.267,1.707,4.267,4.267
	C281.6,314.027,279.893,315.733,277.333,315.733z M499.2,298.667h-34.133c-2.56,0-4.267-1.707-4.267-4.267
	c0-2.56,1.707-4.267,4.267-4.267H499.2c2.56,0,4.267,1.707,4.267,4.267C503.467,296.96,501.76,298.667,499.2,298.667z M38.4,298.667
	H21.333c-2.56,0-4.267-1.707-4.267-4.267c0-2.56,1.707-4.267,4.267-4.267H38.4c2.56,0,4.267,1.707,4.267,4.267
	C42.667,296.96,40.96,298.667,38.4,298.667z M499.2,230.4h-25.6c-6.827,0-12.8-5.973-12.8-12.8v-85.333
	c0-6.827,5.973-12.8,12.8-12.8h8.533c2.56,0,4.267,1.707,4.267,4.267c0,2.56-1.707,4.267-4.267,4.267l0,0H473.6
	c-2.56,0-4.267,1.707-4.267,4.267V217.6c0,2.56,1.707,4.267,4.267,4.267h25.6c2.56,0,4.267,1.707,4.267,4.267
	S501.76,230.4,499.2,230.4z M422.4,230.4H234.667c-6.827,0-12.8-5.973-12.8-12.8v-85.333c0-6.827,5.973-12.8,12.8-12.8H422.4
	c6.827,0,12.8,5.973,12.8,12.8V217.6C435.2,224.427,429.227,230.4,422.4,230.4z M234.667,128c-2.56,0-4.267,1.707-4.267,4.267V217.6
	c0,2.56,1.707,4.267,4.267,4.267H422.4c2.56,0,4.267-1.707,4.267-4.267v-85.333c0-2.56-1.707-4.267-4.267-4.267H234.667z
	 M183.467,230.4H21.333c-2.56,0-4.267-1.707-4.267-4.267s1.707-4.267,4.267-4.267h162.133c2.56,0,4.267-1.707,4.267-4.267v-85.333
	c0-2.56-1.707-4.267-4.267-4.267H38.4c-2.56,0-4.267-1.707-4.267-4.267c0-2.56,1.707-4.267,4.267-4.267h145.067
	c6.827,0,12.8,5.973,12.8,12.8V217.6C196.267,224.427,190.293,230.4,183.467,230.4z M294.4,196.267h-17.067
	c-2.56,0-4.267-1.707-4.267-4.267c0-2.56,1.707-4.267,4.267-4.267H294.4c2.56,0,4.267,1.707,4.267,4.267
	C298.667,194.56,296.96,196.267,294.4,196.267z M81.067,196.267h-8.533c-2.56,0-4.267-1.707-4.267-4.267
	c0-2.56,1.707-4.267,4.267-4.267h8.533c2.56,0,4.267,1.707,4.267,4.267C85.333,194.56,83.627,196.267,81.067,196.267z M38.4,179.2
	H4.267c-2.56,0-4.267-1.707-4.267-4.267c0-2.56,1.707-4.267,4.267-4.267H38.4c2.56,0,4.267,1.707,4.267,4.267
	C42.667,177.493,40.96,179.2,38.4,179.2z M396.8,162.133h-34.133c-2.56,0-4.267-1.707-4.267-4.267c0-2.56,1.707-4.267,4.267-4.267
	H396.8c2.56,0,4.267,1.707,4.267,4.267C401.067,160.427,399.36,162.133,396.8,162.133z M140.8,162.133h-17.067
	c-2.56,0-4.267-1.707-4.267-4.267c0-2.56,1.707-4.267,4.267-4.267H140.8c2.56,0,4.267,1.707,4.267,4.267
	C145.067,160.427,143.36,162.133,140.8,162.133z M465.067,93.867H354.133c-6.827,0-12.8-5.973-12.8-12.8V12.8
	c0-6.827,5.973-12.8,12.8-12.8H448c2.56,0,4.267,1.707,4.267,4.267S450.56,8.533,448,8.533l0,0h-93.867
	c-2.56,0-4.267,1.707-4.267,4.267v68.267c0,2.56,1.707,4.267,4.267,4.267h110.933c2.56,0,4.267,1.707,4.267,4.267
	C469.333,92.16,467.627,93.867,465.067,93.867z M302.933,93.867H115.2c-6.827,0-12.8-5.973-12.8-12.8V21.333
	c0-2.56,1.707-4.267,4.267-4.267s4.267,1.707,4.267,4.267v59.733c0,2.56,1.707,4.267,4.267,4.267h187.733
	c2.56,0,4.267-1.707,4.267-4.267v-76.8c0-2.56,1.707-4.267,4.267-4.267s4.267,1.707,4.267,4.267v76.8
	C315.733,87.893,309.76,93.867,302.933,93.867z M64,93.867H21.333c-2.56,0-4.267-1.707-4.267-4.267c0-2.56,1.707-4.267,4.267-4.267
	H64c2.56,0,4.267-1.707,4.267-4.267V38.4c0-2.56,1.707-4.267,4.267-4.267c2.56,0,4.267,1.707,4.267,4.267v42.667
	C76.8,87.893,70.827,93.867,64,93.867z M482.133,59.733H448c-2.56,0-4.267-1.707-4.267-4.267c0-2.56,1.707-4.267,4.267-4.267h34.133
	c2.56,0,4.267,1.707,4.267,4.267C486.4,58.027,484.693,59.733,482.133,59.733z M192,59.733h-17.067c-2.56,0-4.267-1.707-4.267-4.267
	c0-2.56,1.707-4.267,4.267-4.267H192c2.56,0,4.267,1.707,4.267,4.267C196.267,58.027,194.56,59.733,192,59.733z M29.867,59.733
	h-8.533c-2.56,0-4.267-1.707-4.267-4.267c0-2.56,1.707-4.267,4.267-4.267h8.533c2.56,0,4.267,1.707,4.267,4.267
	C34.133,58.027,32.427,59.733,29.867,59.733z M277.333,25.6H268.8c-2.56,0-4.267-1.707-4.267-4.267s1.707-4.267,4.267-4.267h8.533
	c2.56,0,4.267,1.707,4.267,4.267S279.893,25.6,277.333,25.6z"/>
</svg>